<svg width="36" height="36" viewBox="0 0 36 36" fill="none" xmlns="http://www.w3.org/2000/svg">
<path d="M11.25 4.36841L3.375 8.30591V31.5H32.625V11.25H19.125V8.30591L11.25 4.36841ZM11.25 6.88166L16.875 9.69416V29.25H5.625V9.69416L11.25 6.88166ZM7.875 11.25V13.5H10.125V11.25H7.875ZM12.375 11.25V13.5H14.625V11.25H12.375ZM19.125 13.5H30.375V29.25H19.125V13.5ZM7.875 15.75V18H10.125V15.75H7.875ZM12.375 15.75V18H14.625V15.75H12.375ZM21.375 15.75V18H23.625V15.75H21.375ZM25.875 15.75V18H28.125V15.75H25.875ZM7.875 20.25V22.5H10.125V20.25H7.875ZM12.375 20.25V22.5H14.625V20.25H12.375ZM21.375 20.25V22.5H23.625V20.25H21.375ZM25.875 20.25V22.5H28.125V20.25H25.875ZM7.875 24.75V27H10.125V24.75H7.875ZM12.375 24.75V27H14.625V24.75H12.375ZM21.375 24.75V27H23.625V24.75H21.375ZM25.875 24.75V27H28.125V24.75H25.875Z" fill="black"/>
</svg>
