<svg width="22" height="22" viewBox="0 0 22 22" fill="none" xmlns="http://www.w3.org/2000/svg">
<path d="M19.381 6.2857H7.85717M5.76194 6.2857H2.61908M19.381 16.7619H7.85717M5.76194 16.7619H2.61908M14.1429 11.5238H2.61908M19.381 11.5238H16.2381M6.80956 4.19046C7.0874 4.19046 7.35387 4.30083 7.55033 4.4973C7.7468 4.69377 7.85717 4.96023 7.85717 5.23808V7.33332C7.85717 7.61116 7.7468 7.87763 7.55033 8.0741C7.35387 8.27056 7.0874 8.38094 6.80956 8.38094C6.53171 8.38094 6.26524 8.27056 6.06878 8.0741C5.87231 7.87763 5.76194 7.61116 5.76194 7.33332V5.23808C5.76194 4.96023 5.87231 4.69377 6.06878 4.4973C6.26524 4.30083 6.53171 4.19046 6.80956 4.19046V4.19046ZM6.80956 14.6667C7.0874 14.6667 7.35387 14.777 7.55033 14.9735C7.7468 15.17 7.85717 15.4364 7.85717 15.7143V17.8095C7.85717 18.0874 7.7468 18.3538 7.55033 18.5503C7.35387 18.7468 7.0874 18.8571 6.80956 18.8571C6.53171 18.8571 6.26524 18.7468 6.06878 18.5503C5.87231 18.3538 5.76194 18.0874 5.76194 17.8095V15.7143C5.76194 15.4364 5.87231 15.17 6.06878 14.9735C6.26524 14.777 6.53171 14.6667 6.80956 14.6667ZM15.1905 9.42856C15.4684 9.42856 15.7348 9.53893 15.9313 9.7354C16.1278 9.93186 16.2381 10.1983 16.2381 10.4762V12.5714C16.2381 12.8493 16.1278 13.1157 15.9313 13.3122C15.7348 13.5087 15.4684 13.619 15.1905 13.619C14.9127 13.619 14.6462 13.5087 14.4497 13.3122C14.2533 13.1157 14.1429 12.8493 14.1429 12.5714V10.4762C14.1429 10.1983 14.2533 9.93186 14.4497 9.7354C14.6462 9.53893 14.9127 9.42856 15.1905 9.42856V9.42856Z" stroke="black" stroke-width="1.04762" stroke-linecap="round" stroke-linejoin="round"/>
</svg>
