<svg width="36" height="36" viewBox="0 0 36 36" fill="none" xmlns="http://www.w3.org/2000/svg">
<path d="M30.9375 32.625V1.125H5.0625V32.625H1.125V34.875H34.875V32.625H30.9375ZM28.6875 32.625H19.125V28.125H16.875V32.625H7.3125V3.375H28.6875V32.625Z" fill="black"/>
<path d="M11.25 21.375H13.5V23.625H11.25V21.375ZM16.875 21.375H19.125V23.625H16.875V21.375ZM22.5 21.375H24.75V23.625H22.5V21.375ZM11.25 14.625H13.5V16.875H11.25V14.625ZM16.875 14.625H19.125V16.875H16.875V14.625ZM22.5 14.625H24.75V16.875H22.5V14.625ZM11.25 7.875H13.5V10.125H11.25V7.875ZM16.875 7.875H19.125V10.125H16.875V7.875ZM22.5 7.875H24.75V10.125H22.5V7.875Z" fill="black"/>
</svg>

