<svg width="98" height="31" viewBox="0 0 98 31" fill="none" xmlns="http://www.w3.org/2000/svg">
<g clip-path="url(#clip0_3_26)">
<path d="M28.234 21.8196C28.0961 21.4325 27.935 21.0581 27.7817 20.7113C27.5455 20.1809 27.3048 19.6525 27.0597 19.1261L27.0405 19.0849C24.8751 14.3996 22.6077 9.76215 20.2399 5.17582L20.1386 4.97982C19.8924 4.49875 19.6419 4.0199 19.3872 3.54332C19.0815 2.93747 18.7106 2.36677 18.2812 1.84133C17.7976 1.26451 17.1934 0.800747 16.5111 0.482733C15.8285 0.16459 15.0844 -0.000221227 14.3313 -0.000122026C13.5782 -2.28244e-05 12.8342 0.164985 12.1516 0.483308C11.4695 0.801469 10.8654 1.26536 10.3819 1.84229C9.95307 2.36784 9.58257 2.93838 9.2769 3.54389C9.01982 4.02487 8.76703 4.50813 8.51855 4.9936L8.42476 5.17544C6.05694 9.762 3.78945 14.3997 1.6239 19.0851L1.59289 19.1521C1.35201 19.6698 1.11536 20.1895 0.882969 20.7111C0.729844 21.0578 0.568871 21.432 0.430867 21.8199C0.0355393 22.8767 -0.0904954 24.0152 0.0641327 25.1328C0.228353 26.2626 0.68524 27.3298 1.38943 28.2284C2.09413 29.1278 3.02146 29.8275 4.07964 30.2585C4.87934 30.582 5.73418 30.7473 6.59683 30.7454C6.86786 30.7454 7.1387 30.7295 7.40801 30.6981C8.49895 30.5591 9.55124 30.2041 10.5034 29.6538C11.752 28.9523 12.9852 27.9243 14.3323 26.4552C15.6794 27.9243 16.9125 28.9523 18.1612 29.6536C19.1133 30.2041 20.1657 30.5591 21.2566 30.6981C21.5259 30.7295 21.7967 30.7453 22.0678 30.7454C22.9305 30.7473 23.7853 30.5819 24.5848 30.2585C25.643 29.8275 26.5704 29.1278 27.2752 28.2284C27.9794 27.3298 28.4363 26.2626 28.6005 25.1328C28.755 24.0151 28.629 22.8765 28.234 21.8196ZM14.3323 23.421C12.6646 21.3072 11.5946 19.3441 11.2191 17.6986C11.0652 17.082 11.0289 16.4419 11.1119 15.8119C11.1776 15.3499 11.3473 14.9089 11.6082 14.522C11.9295 14.1054 12.3422 13.7682 12.8145 13.5363C13.2869 13.3044 13.8063 13.1838 14.3326 13.1839C14.8589 13.184 15.3781 13.3046 15.8506 13.5366C16.3227 13.7686 16.7354 14.1058 17.0566 14.5224C17.3175 14.9093 17.4872 15.3504 17.5529 15.8125C17.6359 16.4427 17.5994 17.083 17.4454 17.6997C17.0694 19.3452 15.9997 21.3077 14.3323 23.421ZM26.6528 24.8545C26.5379 25.6444 26.2185 26.3904 25.7262 27.0187C25.2334 27.6476 24.585 28.1369 23.845 28.4382C23.0965 28.7381 22.2843 28.8443 21.4838 28.7471C20.6518 28.64 19.85 28.3661 19.1263 27.9419C18.0148 27.3175 16.8897 26.3589 15.6235 24.9527C17.6391 22.4677 18.8977 20.1771 19.3636 18.1367C19.5733 17.2789 19.6188 16.3892 19.4976 15.5144C19.3877 14.7607 19.108 14.0417 18.6795 13.4118C18.1773 12.7319 17.5224 12.1794 16.7676 11.7989C16.0123 11.418 15.1783 11.2197 14.3325 11.2197C13.4867 11.2197 12.6527 11.418 11.8974 11.7989C11.1426 12.1793 10.4876 12.7316 9.98529 13.4115C9.55697 14.0411 9.27725 14.7598 9.16722 15.5133C9.04598 16.3877 9.09118 17.2772 9.30044 18.1348C9.76613 20.1758 11.0248 22.4671 13.0409 24.9529C11.7749 26.3589 10.6499 27.3175 9.53836 27.9421C8.81465 28.3662 8.0128 28.64 7.18081 28.7471C6.38023 28.8443 5.56806 28.7381 4.81943 28.4382C4.07959 28.1369 3.43123 27.6477 2.93848 27.0189C2.44621 26.3906 2.12684 25.6444 2.01207 24.8545C1.90179 24.0517 1.99567 23.2341 2.28502 22.4772C2.39489 22.1679 2.5237 21.8647 2.68314 21.5041C2.91119 20.9924 3.14338 20.4825 3.37967 19.9746L3.41068 19.9072C5.56436 15.2479 7.81941 10.6361 10.1742 6.07505L10.2684 5.89226C10.5096 5.42465 10.7588 4.94097 11.0103 4.47374C11.2509 3.99204 11.5422 3.53731 11.8791 3.11725C12.1781 2.75667 12.5529 2.46645 12.9769 2.26724C13.4008 2.06803 13.8635 1.96473 14.3319 1.96469C14.8004 1.96465 15.2631 2.06788 15.687 2.26703C16.111 2.46617 16.4859 2.75634 16.785 3.11687C17.1222 3.53658 17.4135 3.99114 17.654 4.47279C17.903 4.93599 18.1501 5.41527 18.3892 5.87867L18.4906 6.07524C20.8455 10.6362 23.1005 15.2481 25.254 19.9076L25.2731 19.9489C25.5085 20.4587 25.7522 20.9854 25.9815 21.5043C26.1411 21.8653 26.2701 22.1689 26.3798 22.477C26.669 23.234 26.7629 24.0515 26.6528 24.8543V24.8545ZM40.0499 23.1736C39.2823 23.1736 38.576 23.0199 37.931 22.7121C37.2859 22.4043 36.7334 21.9733 36.242 21.4195C35.7507 20.8656 35.3822 20.2194 35.1056 19.5114C34.8292 18.7727 34.7064 17.9725 34.7064 17.111C34.7064 16.2492 34.8601 15.4182 35.1365 14.6795C35.4128 13.9411 35.8121 13.2947 36.3035 12.71C36.7948 12.156 37.3782 11.6944 38.0539 11.3866C38.7295 11.0788 39.4358 10.9249 40.2344 10.9249C41.0019 10.9249 41.6776 11.0788 42.292 11.4174C42.9062 11.7252 43.3975 12.1868 43.7966 12.7714L43.8889 11.2635H46.714V22.866H43.8889L43.7966 21.1734C43.3975 21.7887 42.8754 22.2812 42.1997 22.6504C41.5855 22.9892 40.8484 23.1737 40.05 23.1737L40.0499 23.1736ZM40.7871 20.4039C41.3399 20.4039 41.8313 20.25 42.292 19.9731C42.7219 19.6653 43.0595 19.2652 43.3361 18.7729C43.5817 18.2805 43.7046 17.6957 43.7046 17.0493C43.7046 16.4029 43.5817 15.8182 43.3361 15.3259C43.0903 14.8334 42.7217 14.4334 42.292 14.1258C41.8619 13.8178 41.3399 13.6947 40.7871 13.6947C40.2344 13.6947 39.743 13.8486 39.2823 14.1256C38.8524 14.4334 38.5146 14.8334 38.2382 15.3257C37.9924 15.8182 37.8695 16.4029 37.8695 17.0493C37.8695 17.6957 37.9924 18.2805 38.2382 18.7727C38.4838 19.2652 38.8524 19.6653 39.2823 19.9729C39.743 20.25 40.2344 20.4039 40.7871 20.4039ZM51.5358 8.12424C51.5358 8.46284 51.4743 8.77062 51.3206 9.01677C51.1615 9.27348 50.9396 9.48535 50.6758 9.63233C50.3994 9.78623 50.0924 9.84767 49.7853 9.84767C49.4781 9.84767 49.1709 9.78623 48.8945 9.63233C48.6307 9.48535 48.4088 9.27348 48.2497 9.01677C48.0962 8.73981 48.0347 8.46284 48.0347 8.12424C48.0347 7.78584 48.096 7.47806 48.2497 7.23172C48.4032 6.95475 48.6182 6.77024 48.8947 6.61635C49.1709 6.46246 49.4781 6.40082 49.7853 6.40082C50.0924 6.40082 50.3994 6.46246 50.6758 6.61635C50.9396 6.76325 51.1617 6.97505 51.3208 7.23172C51.4435 7.47806 51.5358 7.75502 51.5358 8.12424ZM48.2497 22.8352V11.2327H51.3206V22.8352H48.2497ZM59.5205 14.2793V14.3103C59.367 14.2487 59.1826 14.2179 59.0289 14.1872C58.8448 14.1564 58.6911 14.1564 58.507 14.1564C57.647 14.1564 57.0021 14.4026 56.5722 14.9259C56.1115 15.449 55.8966 16.1876 55.8966 17.1416V22.8352H52.8256V11.2327H55.6508L55.7431 12.9869C56.0501 12.3714 56.4187 11.9097 56.9407 11.5713C57.432 11.2325 58.0154 11.0788 58.6911 11.0788C58.9062 11.0788 59.1212 11.1094 59.3055 11.1402C59.3974 11.171 59.4588 11.171 59.5205 11.2019V14.2795V14.2793ZM60.7487 22.8352V6.46226H63.8198V12.7098C64.2497 12.156 64.7411 11.725 65.3553 11.3866C65.9697 11.0788 66.6454 10.8941 67.4129 10.8941C68.1804 10.8941 68.8869 11.048 69.5318 11.3558C70.1768 11.6635 70.7296 12.0944 71.2209 12.6483C71.7125 13.2023 72.0809 13.8486 72.3573 14.5566C72.6337 15.2951 72.7564 16.0952 72.7564 16.9569C72.7564 17.8188 72.6029 18.6497 72.3267 19.3883C72.0501 20.1269 71.651 20.7731 71.1595 21.3579C70.6682 21.912 70.0847 22.3735 69.4091 22.6813C68.7334 22.989 68.0271 23.1429 67.2288 23.1429C66.4608 23.1429 65.7854 22.989 65.1712 22.6504C64.5567 22.3427 64.0654 21.881 63.6663 21.2964L63.5741 22.8043L60.7489 22.8352H60.7487ZM66.6758 20.4039C67.2288 20.4039 67.7201 20.25 68.1806 19.9731C68.6105 19.6653 68.9484 19.2652 69.2248 18.7729C69.4705 18.2805 69.5934 17.6957 69.5934 17.0493C69.5934 16.4029 69.4705 15.8182 69.2248 15.3259C68.9484 14.8334 68.6105 14.4334 68.1806 14.1258C67.7507 13.8178 67.2288 13.6947 66.6758 13.6947C66.123 13.6947 65.6317 13.8486 65.1712 14.1256C64.7411 14.4334 64.4032 14.8334 64.1268 15.3257C63.8813 15.8182 63.7584 16.4029 63.7584 17.0493C63.7584 17.6957 63.8813 18.2805 64.1268 18.7727C64.3726 19.2652 64.7413 19.6653 65.1712 19.9729C65.6317 20.25 66.123 20.4039 66.6758 20.4039ZM73.9236 22.8352V11.2327H76.7487L76.841 12.7408C77.1788 12.1867 77.6394 11.7558 78.223 11.4174C78.8064 11.0788 79.482 10.9249 80.2499 10.9249C81.1097 10.9249 81.8467 11.1402 82.4609 11.5405C83.1059 11.9405 83.5973 12.5252 83.9351 13.2639C84.2729 14.0025 84.4571 14.8949 84.4571 15.9106V22.866H81.3861V16.3107C81.3861 15.5106 81.2018 14.8642 80.8334 14.4024C80.4649 13.9411 79.9734 13.6947 79.3285 13.6947C78.8678 13.6947 78.4685 13.787 78.1001 14.0025C77.7622 14.2179 77.4858 14.4948 77.2709 14.895C77.0559 15.2643 76.9639 15.7258 76.9639 16.1876V22.8352H73.9236ZM85.9925 22.8352V6.46226H89.0636V12.7098C89.4935 12.156 89.9849 11.725 90.5991 11.3866C91.2135 11.0788 91.8892 10.8941 92.6567 10.8941C93.4246 10.8941 94.1309 11.048 94.7758 11.3558C95.4208 11.6635 95.9734 12.0944 96.4647 12.6483C96.9566 13.2023 97.3245 13.8486 97.6013 14.5566C97.8781 15.2951 98 16.0952 98 16.9569C98 17.8188 97.8473 18.6497 97.5705 19.3883C97.2939 20.1269 96.895 20.7731 96.4031 21.3579C95.912 21.912 95.3285 22.3735 94.6529 22.6813C93.9772 22.989 93.2709 23.1429 92.4726 23.1429C91.7048 23.1429 91.0292 22.989 90.415 22.6504C89.8005 22.3427 89.3094 21.881 88.9101 21.2964L88.8181 22.8043L85.9925 22.8352ZM91.9504 20.4039C92.5032 20.4039 92.9945 20.25 93.4553 19.9731C93.8852 19.6653 94.2228 19.2652 94.4994 18.7729C94.7451 18.2805 94.868 17.6957 94.868 17.0493C94.868 16.4029 94.7451 15.8182 94.4994 15.3259C94.2538 14.8334 93.8852 14.4334 93.4553 14.1258C93.0252 13.8178 92.5032 13.6947 91.9504 13.6947C91.3976 13.6947 90.9063 13.8486 90.4456 14.1256C90.0157 14.4334 89.678 14.8334 89.4015 15.3257C89.1251 15.8182 89.0328 16.4029 89.0328 17.0493C89.0328 17.6957 89.1559 18.2805 89.4015 18.7727C89.6472 19.2652 90.0159 19.6653 90.4456 19.9729C90.9063 20.25 91.367 20.4039 91.9504 20.4039Z" fill="#FF385C"/>
</g>
<defs>
<clipPath id="clip0_3_26">
<rect width="98" height="30.8164" fill="white"/>
</clipPath>
</defs>
</svg>
