<svg width="21" height="21" viewBox="0 0 21 21" fill="none" xmlns="http://www.w3.org/2000/svg">
<g clip-path="url(#clip0_2_12)">
<path d="M18.1951 18.1707L14.3656 14.3344M16.4878 9.2073C16.4878 11.1317 15.7233 12.9774 14.3625 14.3381C13.0018 15.6989 11.1562 16.4634 9.23171 16.4634C7.30728 16.4634 5.46166 15.6989 4.10088 14.3381C2.7401 12.9774 1.97562 11.1317 1.97562 9.2073C1.97562 7.28286 2.7401 5.43725 4.10088 4.07646C5.46166 2.71568 7.30728 1.9512 9.23171 1.9512C11.1562 1.9512 13.0018 2.71568 14.3625 4.07646C15.7233 5.43725 16.4878 7.28286 16.4878 9.2073V9.2073Z" stroke="#EBEBEB" stroke-width="2.04878" stroke-linecap="round"/>
</g>
<defs>
<clipPath id="clip0_2_12">
<rect width="20.4878" height="20.4878" fill="white" transform="translate(0.268295 0.243896)"/>
</clipPath>
</defs>
</svg>
